<svg width="80" height="81" viewBox="0 0 80 81" fill="none" xmlns="http://www.w3.org/2000/svg">
<rect y="0.992188" width="80" height="80" rx="40" fill="#F37748" fill-opacity="0.1"/>
<path d="M25.5842 46.0469C25.1991 46.0469 24.8867 46.3618 24.8867 46.7507V47.2202C24.8867 47.6088 25.1991 47.9241 25.5842 47.9241C25.9697 47.9241 26.2821 47.6088 26.2821 47.2202V46.7507C26.2821 46.3618 25.9697 46.0469 25.5842 46.0469Z" fill="#F7AA8C"/>
<path d="M25.5842 40.416C25.1991 40.416 24.8867 40.731 24.8867 41.1199V41.5894C24.8867 41.978 25.1991 42.2932 25.5842 42.2932C25.9697 42.2932 26.2821 41.978 26.2821 41.5894V41.1199C26.2821 40.731 25.9697 40.416 25.5842 40.416Z" fill="#F7AA8C"/>
<path d="M25.5842 43.2324C25.1991 43.2324 24.8867 43.5477 24.8867 43.9366V44.4061V44.4058C24.8867 44.7947 25.1991 45.11 25.5842 45.11C25.9697 45.11 26.2821 44.7947 26.2821 44.4058V43.9363V43.9366C26.2821 43.5477 25.9697 43.2324 25.5842 43.2324Z" fill="#F7AA8C"/>
<path d="M52.3583 49.9203H54.4372C54.4914 49.9269 54.5459 49.9269 54.6001 49.9203C56.0688 49.8156 57.4431 49.1519 58.4456 48.0641C59.4481 46.9759 60.0036 45.5439 60 44.0582V43.448V43.4483C59.9977 42.2527 59.6337 41.0866 58.9563 40.1057C58.2786 39.1253 57.3202 38.3772 56.2094 37.9617C56.1078 33.6917 54.3559 29.6309 51.327 26.6466C48.2984 23.6628 44.2333 21.9922 40 21.9922C35.7667 21.9922 31.702 23.6629 28.673 26.6466C25.6441 29.6306 23.8922 33.6915 23.7906 37.9617C22.6781 38.3775 21.7188 39.1272 21.0411 40.1097C20.3637 41.0922 20.0003 42.2606 20 43.4575V44.0677C20.0026 45.6204 20.6148 47.1087 21.703 48.2068C22.7908 49.3046 24.2659 49.9227 25.8048 49.9249H26.9396V52.539C26.9406 53.9703 27.5045 55.3424 28.5073 56.3543C29.5101 57.3662 30.8701 57.9352 32.2882 57.9365H37.3578C37.5858 58.8083 38.2214 59.5129 39.0601 59.8233C39.8991 60.134 40.8354 60.0112 41.5679 59.4952C42.3005 58.9789 42.7368 58.134 42.7368 57.2324C42.7368 56.3307 42.3004 55.4861 41.5679 54.9698C40.8353 54.4536 39.899 54.3311 39.0601 54.6418C38.2214 54.9522 37.5858 55.6567 37.3578 56.5285H32.2928C31.2449 56.5272 30.2397 56.1065 29.4987 55.3588C28.7574 54.6107 28.3405 53.5969 28.3395 52.539V38.3039C28.3395 34.0997 30.5622 30.2143 34.1705 28.1118C37.7792 26.0094 42.2249 26.0094 45.8331 28.1118C49.4414 30.2139 51.6644 34.0993 51.6644 38.3039V49.216C51.6644 49.6029 51.974 49.9172 52.3574 49.9198L52.3583 49.9203ZM40.0006 55.8856C40.3562 55.8843 40.6975 56.0257 40.9496 56.2787C41.2017 56.5315 41.3441 56.8752 41.3447 57.234C41.3457 57.5928 41.2049 57.9372 40.9541 58.1913C40.703 58.4453 40.3623 58.5884 40.0068 58.5887C39.6512 58.5894 39.3102 58.447 39.0588 58.1936C38.807 57.9399 38.6659 57.5961 38.6659 57.2373C38.6659 56.8795 38.8064 56.5364 39.0565 56.283C39.3067 56.0296 39.646 55.8868 40.0006 55.8855L40.0006 55.8856ZM58.6048 43.4482V44.0584V44.0581C58.6032 45.087 58.2493 46.0839 57.6024 46.8795C56.9554 47.675 56.0558 48.2204 55.0562 48.4231C54.9313 48.1716 54.6692 48.0201 54.3912 48.0384C54.1131 48.0571 53.873 48.2417 53.7819 48.5075H53.0561V38.9985H54.191C55.3609 38.9985 56.4828 39.467 57.3104 40.3015C58.1381 41.1356 58.6036 42.2674 58.6049 43.448L58.6048 43.4482ZM26.9452 48.5168H25.8058C24.6365 48.5158 23.516 48.0466 22.6893 47.2125C21.8627 46.3784 21.3977 45.2472 21.3965 44.0677V43.4575C21.3981 42.4285 21.7521 41.4316 22.399 40.6361C23.0459 39.8406 23.9455 39.2951 24.9451 39.0928C25.07 39.3443 25.3321 39.4955 25.6102 39.4772C25.8882 39.4588 26.1283 39.2739 26.2195 39.0084H26.9449L26.9452 48.5168ZM40.0006 25.1254C36.6619 25.1336 33.4525 26.4304 31.0307 28.7499C28.6095 31.0697 27.1589 34.2362 26.9772 37.6002H25.5588C25.5046 37.5936 25.4501 37.5936 25.3959 37.6002H25.1912C25.357 33.7501 26.9892 30.1136 29.7472 27.4492C32.5055 24.7839 36.1768 23.2963 39.9953 23.2963C43.8139 23.2963 47.4852 24.7839 50.2434 27.4492C53.0017 30.1141 54.6336 33.7506 54.7994 37.6002C54.5969 37.5786 54.3935 37.5675 54.1901 37.5675H53.0228C52.833 34.2089 51.3792 31.0506 48.9586 28.7381C46.5379 26.4254 43.3333 25.1329 39.9995 25.1255L40.0006 25.1254Z" fill="#F7AA8C"/>
<path d="M53.7383 40.2976V40.7671C53.7383 41.1557 54.0504 41.471 54.4358 41.471C54.8212 41.471 55.1333 41.1557 55.1333 40.7671V40.2976C55.1333 39.9087 54.8212 39.5938 54.4358 39.5938C54.0504 39.5938 53.7383 39.9087 53.7383 40.2976Z" fill="#F7AA8C"/>
<path d="M54.4205 42.4102C54.0351 42.4102 53.7227 42.7254 53.7227 43.1144V43.5838V43.5835C53.7227 43.9724 54.0351 44.2877 54.4205 44.2877C54.8056 44.2877 55.118 43.9724 55.118 43.5835V43.114V43.1144C55.118 42.7254 54.8056 42.4102 54.4205 42.4102Z" fill="#F7AA8C"/>
<path d="M54.4205 45.2266C54.0351 45.2266 53.7227 45.5418 53.7227 45.9304V46.3999C53.7227 46.7888 54.0351 47.1038 54.4205 47.1038C54.8056 47.1038 55.118 46.7888 55.118 46.3999V45.9304C55.118 45.5418 54.8056 45.2266 54.4205 45.2266Z" fill="#F7AA8C"/>
</svg>
