<svg width="71" height="71" viewBox="0 0 71 71" fill="none" xmlns="http://www.w3.org/2000/svg">
<rect x="0.5" y="0.988281" width="70" height="70" rx="35" fill="#CFCFE7"/>
<path d="M52.5318 41.3747C52.3482 41.1594 52.1201 40.9867 51.8631 40.8685C51.6061 40.7502 51.3265 40.6893 51.0436 40.69H50.8296C49.7171 37.1527 48.3382 33.0305 47.7772 32.2079C46.9974 31.0859 45.3381 30.1207 42.8419 29.3267C43.819 27.9784 44.4044 26.3864 44.5335 24.7263C44.6626 23.0663 44.3304 21.4028 43.5736 19.9197C42.8168 18.4366 41.6647 17.1915 40.2448 16.3219C38.8248 15.4524 37.1921 14.9922 35.527 14.9922C33.8619 14.9922 32.2293 15.4524 30.8093 16.3219C29.3893 17.1915 28.2373 18.4366 27.4804 19.9197C26.7236 21.4028 26.3914 23.0663 26.5205 24.7263C26.6496 26.3864 27.235 27.9784 28.2121 29.3267C25.6874 30.1207 24.0091 31.0906 23.2245 32.2222C22.6635 33.0305 21.2847 37.1479 20.1721 40.69H19.9582C19.6756 40.6901 19.3965 40.7513 19.1399 40.8695C18.8832 40.9876 18.6552 41.1598 18.4714 41.3743C18.2876 41.5889 18.1523 41.8406 18.0749 42.1123C17.9975 42.384 17.9798 42.6693 18.023 42.9484L19.9249 55.3483C19.9556 55.5169 20.0461 55.6688 20.1796 55.7762C20.3132 55.8836 20.481 55.9393 20.6523 55.9331H50.3494C50.5194 55.9328 50.6838 55.8718 50.8128 55.7611C50.9418 55.6504 51.027 55.4973 51.0531 55.3293L52.9787 42.9294C53.0198 42.6534 53.0012 42.3717 52.9241 42.1035C52.847 41.8353 52.7132 41.5867 52.5318 41.3747ZM27.9316 24.0491C27.9316 22.5446 28.3777 21.0738 29.2136 19.8228C30.0495 18.5718 31.2377 17.5967 32.6277 17.0209C34.0178 16.4452 35.5473 16.2945 37.023 16.5881C38.4987 16.8816 39.8542 17.6061 40.9181 18.67C41.982 19.7339 42.7065 21.0894 43.0001 22.565C43.2936 24.0407 43.1429 25.5703 42.5672 26.9603C41.9914 28.3504 41.0163 29.5385 39.7653 30.3744C38.5143 31.2102 37.0435 31.6564 35.5389 31.6564C33.5213 31.6564 31.5864 30.8549 30.1597 29.4283C28.7331 28.0017 27.9316 26.0667 27.9316 24.0491ZM24.3942 33.021C25.1454 31.9464 27.0995 31.1191 29.2248 30.4963C30.9074 32.1465 33.1702 33.071 35.527 33.071C37.8838 33.071 40.1466 32.1465 41.8292 30.4963C43.9355 31.1049 45.8658 31.9227 46.5838 33.0114C46.9974 33.601 48.1623 37.0481 49.3082 40.6758H45.2858L44.8674 39.0164C44.8214 38.833 44.7043 38.6753 44.5421 38.5781C44.3798 38.4809 44.1855 38.4522 44.0021 38.4982C43.8186 38.5442 43.6609 38.6612 43.5637 38.8235C43.4665 38.9858 43.4378 39.18 43.4838 39.3635L43.8166 40.6758H27.1756L27.5084 39.3635C27.5544 39.18 27.5257 38.9858 27.4285 38.8235C27.3313 38.6612 27.1736 38.5442 26.9902 38.4982C26.8993 38.4754 26.8049 38.4707 26.7122 38.4844C26.6196 38.4981 26.5305 38.53 26.4502 38.5781C26.2879 38.6753 26.1709 38.833 26.1248 39.0164L25.7064 40.6758H21.6698C22.8157 37.0623 23.9805 33.6153 24.3942 33.021ZM51.5714 42.7297L49.7646 54.5067H21.2609L19.4304 42.7297C19.4179 42.6537 19.4225 42.5758 19.4439 42.5018C19.4653 42.4278 19.5029 42.3595 19.554 42.3018C19.6032 42.2426 19.665 42.1952 19.735 42.1631C19.8049 42.131 19.8812 42.115 19.9582 42.1164H51.0436C51.1205 42.115 51.1968 42.131 51.2668 42.1631C51.3367 42.1952 51.3986 42.2426 51.4477 42.3018C51.4988 42.3595 51.5365 42.4278 51.5579 42.5018C51.5792 42.5758 51.5838 42.6537 51.5714 42.7297ZM30.8699 46.7378L29.5006 48.1071L30.8699 49.4764L31.3739 49.9804C31.4406 50.0463 31.4936 50.1248 31.5297 50.2113C31.5658 50.2978 31.5845 50.3906 31.5845 50.4844C31.5845 50.5781 31.5658 50.671 31.5297 50.7575C31.4936 50.844 31.4406 50.9225 31.3739 50.9884C31.3085 51.0557 31.2301 51.109 31.1435 51.1449C31.0568 51.1809 30.9637 51.1988 30.8699 51.1976C30.7762 51.1983 30.6832 51.1801 30.5967 51.1442C30.5101 51.1082 30.4316 51.0552 30.3659 50.9884L27.9886 48.6111C27.8562 48.4768 27.782 48.2957 27.782 48.1071C27.782 47.9185 27.8562 47.7375 27.9886 47.6031L30.3659 45.2259C30.5003 45.0935 30.6813 45.0192 30.8699 45.0192C31.0585 45.0192 31.2396 45.0935 31.3739 45.2259C31.4406 45.2918 31.4936 45.3702 31.5297 45.4567C31.5658 45.5433 31.5845 45.6361 31.5845 45.7298C31.5845 45.8236 31.5658 45.9164 31.5297 46.0029C31.4936 46.0895 31.4406 46.1679 31.3739 46.2338L30.8699 46.7378ZM43.0131 47.6031C43.1455 47.7375 43.2197 47.9185 43.2197 48.1071C43.2197 48.2957 43.1455 48.4768 43.0131 48.6111L40.6358 50.9884C40.5701 51.0552 40.4917 51.1082 40.4051 51.1442C40.3185 51.1801 40.2256 51.1983 40.1318 51.1976C40.038 51.1988 39.9449 51.1809 39.8583 51.1449C39.7716 51.109 39.6932 51.0557 39.6278 50.9884C39.5611 50.9225 39.5082 50.844 39.472 50.7575C39.4359 50.671 39.4173 50.5781 39.4173 50.4844C39.4173 50.3906 39.4359 50.2978 39.472 50.2113C39.5082 50.1248 39.5611 50.0463 39.6278 49.9804L40.1318 49.4764L41.5011 48.1071L40.1318 46.7378L39.6278 46.2338C39.5611 46.1679 39.5082 46.0895 39.472 46.0029C39.4359 45.9164 39.4173 45.8236 39.4173 45.7298C39.4173 45.6361 39.4359 45.5433 39.472 45.4567C39.5082 45.3702 39.5611 45.2918 39.6278 45.2259C39.7622 45.0935 39.9432 45.0192 40.1318 45.0192C40.3204 45.0192 40.5015 45.0935 40.6358 45.2259L43.0131 47.6031ZM37.9732 44.8598L34.4073 51.9916C34.3655 52.0759 34.3075 52.1511 34.2365 52.213C34.1656 52.2748 34.0832 52.3221 33.9941 52.3521C33.9049 52.3822 33.8107 52.3943 33.7168 52.3879C33.6229 52.3815 33.5312 52.3567 33.4469 52.3149C33.3626 52.273 33.2874 52.215 33.2255 52.1441C33.1636 52.0732 33.1163 51.9908 33.0863 51.9016C33.0563 51.8125 33.0441 51.7182 33.0505 51.6243C33.0569 51.5305 33.0817 51.4388 33.1236 51.3545L36.6895 44.2227C36.7794 44.0632 36.9271 43.9444 37.1021 43.8908C37.2772 43.8372 37.4661 43.853 37.6298 43.9349C37.7935 44.0167 37.9195 44.1584 37.9817 44.3306C38.0438 44.5027 38.0374 44.6922 37.9637 44.8598H37.9732Z" fill="#221C69"/>
</svg>
