<svg width="65" height="66" viewBox="0 0 65 66" fill="none" xmlns="http://www.w3.org/2000/svg">
<g clip-path="url(#clip0_208_272)">
<path d="M32.5001 35.7083C33.9959 35.7083 35.2084 34.4957 35.2084 33C35.2084 31.5042 33.9959 30.2916 32.5001 30.2916C31.0043 30.2916 29.7917 31.5042 29.7917 33C29.7917 34.4957 31.0043 35.7083 32.5001 35.7083Z" stroke="black" stroke-width="2" stroke-linecap="round" stroke-linejoin="round"/>
<path d="M32.4999 46.5417C39.9788 46.5417 46.0416 40.4789 46.0416 33C46.0416 25.5212 39.9788 19.4584 32.4999 19.4584C25.0211 19.4584 18.9583 25.5212 18.9583 33C18.9583 40.4789 25.0211 46.5417 32.4999 46.5417Z" stroke="black" stroke-width="2" stroke-linecap="round" stroke-linejoin="round"/>
<path d="M32.5 57.375C45.9619 57.375 56.875 46.4619 56.875 33C56.875 19.5381 45.9619 8.625 32.5 8.625C19.0381 8.625 8.125 19.5381 8.125 33C8.125 46.4619 19.0381 57.375 32.5 57.375Z" stroke="black" stroke-width="2" stroke-linecap="round" stroke-linejoin="round"/>
</g>
<defs>
<clipPath id="clip0_208_272">
<rect width="65" height="65" fill="white" transform="translate(0 0.5)"/>
</clipPath>
</defs>
</svg>
