<svg width="55" height="71" viewBox="0 0 55 71" fill="none" xmlns="http://www.w3.org/2000/svg">
<g clip-path="url(#clip0_1096_6667)">
<path d="M51.1198 35.4278C51.1198 31.8328 48.6346 28.9186 45.5688 28.9186C45.3716 28.9186 45.1771 28.9309 44.9854 28.9544L52.6097 2.58569H20.2088L27.8224 28.9317C27.7108 28.9237 27.5986 28.9186 27.4851 28.9186C24.4194 28.9186 21.9341 31.8328 21.9341 35.4278C21.9341 38.3337 23.5581 40.7938 25.7997 41.6309C24.6157 44.0356 23.1261 46.2014 21.4348 48.0723C19.135 50.6166 16.5029 52.5457 13.6563 53.7344C10.2669 51.6928 8.66634 47.1519 10.1106 43.1709C10.2737 42.7214 10.4401 42.2655 10.5994 41.8119C13.0547 41.1399 14.8844 38.5585 14.8844 35.4746C14.8844 31.8796 12.3991 28.9653 9.33333 28.9653C6.26735 28.9653 3.78209 31.8796 3.78209 35.4746C3.78209 37.6792 4.71759 39.6261 6.14733 40.8037C4.77328 44.4722 2.75377 48.311 2.12454 52.7604C1.37044 58.093 2.12222 63.7533 6.05515 66.9498C15.2149 74.3941 25.1576 62.335 35.641 59.3035C39.4402 58.2048 43.6107 58.3819 46.958 56.1085C49.4718 54.4013 51.1289 51.5721 51.5993 48.3956C52.0638 45.2577 51.3865 42.1335 49.8289 39.6001C50.6345 38.4702 51.1198 37.0158 51.1198 35.4278ZM33.0357 35.4508C33.0357 35.4431 33.0364 35.4355 33.0364 35.4278C33.0364 33.0671 31.9644 30.9998 30.3604 29.8587L36.4202 15.4899L42.4906 30.0111C40.9999 31.1781 40.0176 33.1683 40.0176 35.4278C40.0176 35.4753 40.0199 35.522 40.0207 35.5693L33.0357 35.4508Z" fill="#C63D14"/>
<path d="M52.4748 35.4277C52.4748 31.4738 50.0454 28.1746 46.8453 27.4699L54.5 0.99585H18.3171L25.9834 27.5236C22.8946 28.3297 20.5777 31.5666 20.5777 35.4277C20.5777 38.3274 21.8844 40.8743 23.843 42.3055C22.9009 43.9511 21.7838 45.4998 20.5036 46.9158C18.4736 49.1618 16.2117 50.865 13.7732 51.9855C11.3173 50.1764 10.2791 46.765 11.3574 43.7928L11.4418 43.5603C11.4945 43.4149 11.5474 43.2689 11.6002 43.123C14.2976 42.0201 16.2393 39.0091 16.2393 35.4744C16.2393 31.0085 13.1409 27.3755 9.33238 27.3755C5.52391 27.3755 2.42566 31.0085 2.42566 35.4744C2.42566 37.7285 3.21562 39.7697 4.48715 41.2394C4.25659 41.8157 4.01423 42.4015 3.76511 43.0015C2.60242 45.8018 1.28469 48.9758 0.78625 52.5003C-0.20368 59.5 1.39291 65.0956 5.28196 68.2562C7.64193 70.1742 10.0384 70.9286 12.45 70.9283C16.9913 70.9281 21.5849 68.253 26.0779 65.636C29.3139 63.7515 32.6597 61.8026 35.9649 60.8468C37.1947 60.4911 38.4601 60.2772 39.7998 60.0506C42.4563 59.6012 45.2036 59.1367 47.6369 57.4841C50.4574 55.5684 52.3883 52.3548 52.9342 48.6676C53.4029 45.5022 52.8387 42.3322 51.4629 39.6435C52.1044 38.4147 52.4748 36.9712 52.4748 35.4277ZM49.7634 35.4277C49.7634 38.1404 47.8814 40.3475 45.5679 40.3475C43.2547 40.3475 41.3725 38.1404 41.3725 35.4277C41.3725 32.715 43.2547 30.5081 45.5679 30.5081C47.8814 30.5081 49.7634 32.715 49.7634 35.4277ZM50.7177 4.17528L43.9582 27.5531C43.6652 27.6354 43.3796 27.7393 43.1022 27.8642L36.4248 11.8909L29.7279 27.7697C29.4385 27.6527 29.1407 27.5565 28.8352 27.4853L22.099 4.17528H50.7177ZM27.4844 30.5081C29.7977 30.5081 31.6797 32.715 31.6797 35.4277C31.6797 38.1404 29.7977 40.3475 27.4844 40.3475C25.1713 40.3475 23.2891 38.1404 23.2891 35.4277C23.2891 32.715 25.1713 30.5081 27.4844 30.5081ZM9.33238 30.5549C11.6459 30.5549 13.5279 32.7618 13.5279 35.4744C13.5279 38.1871 11.6459 40.3942 9.33238 40.3942C7.01924 40.3942 5.13705 38.1871 5.13705 35.4744C5.13705 32.7618 7.01924 30.5549 9.33238 30.5549ZM50.2627 48.1237C49.8545 50.8811 48.402 53.2901 46.2779 54.7326C44.2978 56.0774 41.925 56.4789 39.4127 56.9036C38.0669 57.1311 36.6752 57.3666 35.3157 57.7599C31.7209 58.7993 28.2389 60.8273 24.8717 62.7885C18.1333 66.7132 12.3138 70.1024 6.82666 65.643C2.80724 62.3765 2.99287 56.3325 3.46115 53.0204C3.89505 49.9521 5.06828 47.1261 6.20291 44.3931C6.3993 43.9202 6.58998 43.4569 6.77709 42.9966C7.33987 43.2605 7.9383 43.4403 8.56204 43.522C7.40716 47.9918 9.22354 52.8518 13.0358 55.1484L13.5575 55.4628L14.1101 55.232C17.124 53.9735 19.901 51.9536 22.3643 49.2286C23.9567 47.4672 25.325 45.5183 26.4502 43.4359C26.7877 43.4955 27.133 43.5269 27.4844 43.5269C31.2929 43.5269 34.3913 39.8938 34.3913 35.4277C34.3913 33.0259 33.4942 30.8661 32.0733 29.3815L36.414 19.0887L40.7988 29.5776C39.4832 31.0533 38.6611 33.1293 38.6611 35.4277C38.6611 39.8938 41.7594 43.5269 45.5679 43.5269C47.0311 43.5269 48.3885 42.9892 49.5065 42.0755C50.2827 43.9387 50.5719 46.0353 50.2627 48.1237Z" fill="white"/>
</g>
<defs>
<clipPath id="clip0_1096_6667">
<rect width="54" height="70" fill="white" transform="translate(0.5 0.99585)"/>
</clipPath>
</defs>
</svg>
